inDegrees=yes
name=ik_S53_A10_T02
DataType=double
version=3
OpenSimVersion=4.3-2021-08-27-4bc7ad9
endheader
time	pelvis_tilt	pelvis_list	pelvis_rotation	pelvis_tx	pelvis_ty	pelvis_tz	hip_flexion_r	hip_adduction_r	hip_rotation_r	knee_angle_r	knee_angle_r_beta	ankle_angle_r	subtalar_angle_r	mtp_angle_r	hip_flexion_l	hip_adduction_l	hip_rotation_l	knee_angle_l	knee_angle_l_beta	ankle_angle_l	subtalar_angle_l	mtp_angle_l	lumbar_extension	lumbar_bending	lumbar_rotation	arm_flex_r	arm_add_r	arm_rot_r	elbow_flex_r	pro_sup_r	wrist_flex_r	wrist_dev_r	arm_flex_l	arm_add_l	arm_rot_l	elbow_flex_l	pro_sup_l	wrist_flex_l	wrist_dev_l
10.48333333333343	-0.02640624164512669	-0.6568319288891719	48.90283398260011	0	0.9399999999999999	0	44.95714547444074	-10.00010440559515	-10.00218011264193	55.00163566697969	0.9599596363711431	0	0	0	44.95714547444074	-10.00010440559515	-10.00218011264193	55.00163566697969	0.9599596363711431	0	0	0	-0.4535906648743149	0.06614292133000849	3.730029837411165	25.21842805453029	4.900933133113313	4.174669555687188	6.806699294378514	102.4849298004997	0	0	17.77867982361199	3.444365574228203	2.100877522617549	12.07365668308567	83.14121742454618	0	0
10.5000000000001	-0.008676982817950766	-0.6266845703403794	48.75593791170228	0	0.9399999999999999	0	44.95738253561641	-10.00010299508446	-10.00215854598852	55.0016284746933	0.9599595108420647	0	0	0	44.95738253561641	-10.00010299508446	-10.00215854598852	55.0016284746933	0.9599595108420647	0	0	0	-0.4173926591231515	0.06615260191139399	3.815170569522152	27.53494393255455	5.156680138993766	2.190045502355376	7.062056376136156	104.2911528863132	0	0	19.06411553837855	2.982904510859097	2.905389840306833	11.07177896119956	82.0853046016227	0	0
10.51666666666677	0.08901508539832287	-0.4853814924391041	48.68350619004753	0	0.9399999999999999	0	44.95788667798328	-10.00010010794708	-10.00211367867532	55.0016129267102	0.9599592394785676	0	0	0	44.95788667798328	-10.00010010794708	-10.00211367867532	55.0016129267102	0.9599592394785676	0	0	0	-0.2482147999123936	0.08264111452253915	3.891510591868886	29.88510562877507	5.378930085361017	0.4775954116525105	7.265089557188012	105.7062167739342	0	0	18.79272767047378	2.566592700191102	3.292830649310482	13.9884328227884	81.20553233296688	0	0
10.53333333333344	0.1334573725431368	-0.4343736275636053	48.86047104131704	0	0.9399999999999999	0	44.95843174930889	-10.00009705207378	-10.00206572961387	55.00159607238781	0.9599589453151487	0	0	0	44.95843174930889	-10.00009705207378	-10.00206572961387	55.00159607238781	0.9599589453151487	0	0	0	-0.1771885347575803	0.07984035084376025	3.716566541910634	29.76576500048032	5.161343402785652	0.637806888348567	10.58048675790342	105.4391372968662	0	0	22.77539468312653	1.30978931826045	2.636204940283414	13.33463096309145	81.33865963414225	0	0
10.5500000000001	0.2046505749584163	-0.3298369339205471	48.82116269656907	0	0.9399999999999999	0	44.95858624634208	-10.00009612465322	-10.00205159465467	55.00159146171618	0.959958864843748	0	0	0	44.95858624634208	-10.00009612465322	-10.00205159465467	55.00159146171618	0.959958864843748	0	0	0	-0.0535037488903751	0.09282378106028112	3.739890577947164	32.28516248467284	5.578200244063879	-0.6178215973443114	7.712357711175446	106.504308497388	0	0	22.58072576960141	0.9912614560020854	2.86093485413745	15.11739704297885	81.17850030479754	0	0
10.56666666666677	0.2131519525572618	-0.3321953697874425	49.00258503762165	0	0.9399999999999999	0	44.95918716789521	-10.00009285212299	-10.0019995690073	55.00157280522257	0.9599585392265076	0	0	0	44.95918716789521	-10.00009285212299	-10.0019995690073	55.00157280522257	0.9599585392265076	0	0	0	-0.04771157033482782	0.08255293897875206	3.570319583728091	32.31464723046121	5.348904015566091	-0.4455261897856604	11.50138363389894	106.0304622000644	0	0	25.41343508031447	0.05617548043456263	1.890416583501024	16.04782581504401	81.95631245434714	0	0
10.58333333333344	0.3661841939356754	-0.07034966088440128	49.0415293904347	0	0.9399999999999999	0	44.95978863794499	-10.00008961266287	-10.00194783202676	55.0015541220057	0.9599582131428583	0	0	0	44.95978863794499	-10.00008961266287	-10.00194783202676	55.0015541220057	0.9599582131428583	0	0	0	0.2506955410855535	0.1329645721391729	3.510764542138033	34.75935839883461	5.526801818471494	-1.32437988712566	12.42472999660387	106.0821157043088	0	0	27.55591305161063	-1.00059975393981	1.622119055864778	17.54166924511492	81.39447237587306	0	0
10.60000000000011	0.36290485807393	-0.06992873324099212	49.10426929463956	0	0.9399999999999999	0	44.96061001189396	-10.00008530594548	-10.00187821338522	55.00152851273793	0.9599577661768167	0	0	0	44.96061001189396	-10.00008530594548	-10.00187821338522	55.00152851273793	0.9599577661768167	0	0	0	0.247223073455291	0.131222339642705	3.456973295526992	37.9227587105959	5.802642272568828	-1.868107802849677	13.44615016108083	105.3795505098924	0	0	30.3335405278272	-2.864989480080691	2.748580655947862	22.43595981403272	78.67328344267271	0	0
10.61666666666677	0.444637094303788	0.09265537351277021	49.15379625458846	0	0.9399999999999999	0	44.96126649298784	-10.00008194232276	-10.00182327830359	55.00150802615182	0.9599574086184368	0	0	0	44.96126649298784	-10.00008194232276	-10.00182327830359	55.00150802615182	0.9599574086184368	0	0	0	0.4218902194064193	0.1714031047779369	3.430182992385086	40.76949731606054	5.956874396608419	-1.970699790339078	15.25386665363993	104.424180143231	0	0	32.57169856263488	-4.15470051472764	3.878932600536366	23.28234085514896	76.74449243976511	0	0
10.63333333333344	0.517725272146615	0.1752810330218796	49.22376373486332	0	0.9399999999999999	0	44.96206961170454	-10.00007791327405	-10.00175683236338	55.00148296575782	0.9599569712320495	0	0	0	44.96206961170454	-10.00007791327405	-10.00175683236338	55.00148296575782	0.9599569712320495	0	0	0	0.5267745540990754	0.1741249694002034	3.452804447073628	43.79653887700678	6.089242080539343	-2.332932101712866	17.41288204139397	103.7395487103189	0	0	35.12984580090651	-6.144513066855863	5.997714348146617	27.46109400846651	73.17382828273749	0	0
10.65000000000011	0.5409817351964008	0.2344387038191914	49.22190063542602	0	0.9399999999999999	0	44.96254093819149	-10.00007557642738	-10.001718024508	55.00146843123646	0.9599567175567966	0	0	0	44.96254093819149	-10.00007557642738	-10.001718024508	55.00146843123646	0.9599567175567966	0	0	0	0.5853291376388747	0.1919936664712773	3.465845997141331	46.95303642149469	6.276409421395521	-2.706525948575582	20.26179607698495	102.4885610280151	0	0	37.65276829931883	-6.710865511805047	6.905459194511967	25.50645300614262	72.01953121139421	0	0
